<mxfile host="Electron" agent="Mozilla/5.0 (Windows NT 10.0; Win64; x64) AppleWebKit/537.36 (KHTML, like Gecko) draw.io/26.2.2 Chrome/134.0.6998.178 Electron/35.1.2 Safari/537.36" version="26.2.2">
  <diagram name="第 1 页" id="82bpFv1d8EzvwWAj_kMp">
    <mxGraphModel dx="2027" dy="516" grid="1" gridSize="10" guides="1" tooltips="1" connect="1" arrows="1" fold="1" page="1" pageScale="1" pageWidth="1169" pageHeight="1654" math="0" shadow="0">
      <root>
        <mxCell id="0" />
        <mxCell id="1" parent="0" />
        <mxCell id="1k1W2q-cotQ6aSmStONc-2" style="edgeStyle=orthogonalEdgeStyle;rounded=0;orthogonalLoop=1;jettySize=auto;html=1;" edge="1" parent="1" source="1k1W2q-cotQ6aSmStONc-1" target="1k1W2q-cotQ6aSmStONc-3">
          <mxGeometry relative="1" as="geometry">
            <mxPoint x="580" y="270" as="targetPoint" />
          </mxGeometry>
        </mxCell>
        <mxCell id="1k1W2q-cotQ6aSmStONc-1" value="push_back和emplace_back的区别" style="rounded=1;whiteSpace=wrap;html=1;" vertex="1" parent="1">
          <mxGeometry x="240" y="225" width="180" height="90" as="geometry" />
        </mxCell>
        <mxCell id="1k1W2q-cotQ6aSmStONc-5" value="" style="edgeStyle=orthogonalEdgeStyle;rounded=0;orthogonalLoop=1;jettySize=auto;html=1;" edge="1" parent="1" source="1k1W2q-cotQ6aSmStONc-3" target="1k1W2q-cotQ6aSmStONc-4">
          <mxGeometry relative="1" as="geometry" />
        </mxCell>
        <mxCell id="1k1W2q-cotQ6aSmStONc-3" value="使用push_back时可以使用移动构造进行在数组末尾添加元素,使用emplace_back则是直接传参，在元素末尾进行构造" style="rounded=1;whiteSpace=wrap;html=1;" vertex="1" parent="1">
          <mxGeometry x="530" y="225" width="170" height="90" as="geometry" />
        </mxCell>
        <mxCell id="1k1W2q-cotQ6aSmStONc-7" value="" style="edgeStyle=orthogonalEdgeStyle;rounded=0;orthogonalLoop=1;jettySize=auto;html=1;" edge="1" parent="1" source="1k1W2q-cotQ6aSmStONc-4" target="1k1W2q-cotQ6aSmStONc-6">
          <mxGeometry relative="1" as="geometry" />
        </mxCell>
        <mxCell id="1k1W2q-cotQ6aSmStONc-4" value="移动构造和移动赋值运算符的重载" style="whiteSpace=wrap;html=1;rounded=1;" vertex="1" parent="1">
          <mxGeometry x="555" y="425" width="120" height="60" as="geometry" />
        </mxCell>
        <mxCell id="1k1W2q-cotQ6aSmStONc-9" value="" style="edgeStyle=orthogonalEdgeStyle;rounded=0;orthogonalLoop=1;jettySize=auto;html=1;" edge="1" parent="1" source="1k1W2q-cotQ6aSmStONc-6" target="1k1W2q-cotQ6aSmStONc-8">
          <mxGeometry relative="1" as="geometry" />
        </mxCell>
        <mxCell id="1k1W2q-cotQ6aSmStONc-10" value="this!=&amp;amp;other" style="edgeLabel;html=1;align=center;verticalAlign=middle;resizable=0;points=[];" vertex="1" connectable="0" parent="1k1W2q-cotQ6aSmStONc-9">
          <mxGeometry x="-0.0232" y="1" relative="1" as="geometry">
            <mxPoint as="offset" />
          </mxGeometry>
        </mxCell>
        <mxCell id="1k1W2q-cotQ6aSmStONc-6" value="移动相关函数的细节：noexcept,&lt;div&gt;this!=&amp;amp;other，对新值的处理，对旧值的处理&lt;/div&gt;" style="whiteSpace=wrap;html=1;rounded=1;" vertex="1" parent="1">
          <mxGeometry x="300" y="410" width="175" height="90" as="geometry" />
        </mxCell>
        <mxCell id="1k1W2q-cotQ6aSmStONc-13" value="" style="edgeStyle=orthogonalEdgeStyle;rounded=0;orthogonalLoop=1;jettySize=auto;html=1;" edge="1" parent="1" source="1k1W2q-cotQ6aSmStONc-8" target="1k1W2q-cotQ6aSmStONc-12">
          <mxGeometry relative="1" as="geometry" />
        </mxCell>
        <mxCell id="1k1W2q-cotQ6aSmStONc-15" value="自我赋值的后果" style="edgeLabel;html=1;align=center;verticalAlign=middle;resizable=0;points=[];" vertex="1" connectable="0" parent="1k1W2q-cotQ6aSmStONc-13">
          <mxGeometry x="-0.1398" y="2" relative="1" as="geometry">
            <mxPoint as="offset" />
          </mxGeometry>
        </mxCell>
        <mxCell id="1k1W2q-cotQ6aSmStONc-8" value="为什么会有这个，因为会导致自我赋值" style="whiteSpace=wrap;html=1;rounded=1;" vertex="1" parent="1">
          <mxGeometry x="327.5" y="580" width="120" height="60" as="geometry" />
        </mxCell>
        <mxCell id="1k1W2q-cotQ6aSmStONc-12" value="&lt;span style=&quot;color: rgba(0, 0, 0, 0.85); font-family: Inter, -apple-system, BlinkMacSystemFont, &amp;quot;Segoe UI&amp;quot;, &amp;quot;SF Pro SC&amp;quot;, &amp;quot;SF Pro Display&amp;quot;, &amp;quot;SF Pro Icons&amp;quot;, &amp;quot;PingFang SC&amp;quot;, &amp;quot;Hiragino Sans GB&amp;quot;, &amp;quot;Microsoft YaHei&amp;quot;, &amp;quot;Helvetica Neue&amp;quot;, Helvetica, Arial, sans-serif; font-size: 16px; text-align: start; background-color: rgb(249, 250, 251);&quot;&gt;当发生自我赋值时，&lt;/span&gt;&lt;code style=&quot;-webkit-font-smoothing: antialiased; box-sizing: border-box; -webkit-tap-highlight-color: rgba(0, 0, 0, 0); background: var(--color-inline-code-background); border-radius: 4px; color: rgba(0, 0, 0, 0.85); font-size: 16px; font-family: Menlo, Monaco, Consolas, &amp;quot;Courier New&amp;quot;, monospace; overflow-anchor: auto; line-height: var(--md-box-samantha-normal-text-line-height); text-align: start;&quot;&gt;other&lt;/code&gt;&lt;span style=&quot;color: rgba(0, 0, 0, 0.85); font-family: Inter, -apple-system, BlinkMacSystemFont, &amp;quot;Segoe UI&amp;quot;, &amp;quot;SF Pro SC&amp;quot;, &amp;quot;SF Pro Display&amp;quot;, &amp;quot;SF Pro Icons&amp;quot;, &amp;quot;PingFang SC&amp;quot;, &amp;quot;Hiragino Sans GB&amp;quot;, &amp;quot;Microsoft YaHei&amp;quot;, &amp;quot;Helvetica Neue&amp;quot;, Helvetica, Arial, sans-serif; font-size: 16px; text-align: start; background-color: rgb(249, 250, 251);&quot;&gt;&amp;nbsp;和&amp;nbsp;&lt;/span&gt;&lt;code style=&quot;-webkit-font-smoothing: antialiased; box-sizing: border-box; -webkit-tap-highlight-color: rgba(0, 0, 0, 0); background: var(--color-inline-code-background); border-radius: 4px; color: rgba(0, 0, 0, 0.85); font-size: 16px; font-family: Menlo, Monaco, Consolas, &amp;quot;Courier New&amp;quot;, monospace; overflow-anchor: auto; line-height: var(--md-box-samantha-normal-text-line-height); text-align: start;&quot;&gt;*this&lt;/code&gt;&lt;span style=&quot;color: rgba(0, 0, 0, 0.85); font-family: Inter, -apple-system, BlinkMacSystemFont, &amp;quot;Segoe UI&amp;quot;, &amp;quot;SF Pro SC&amp;quot;, &amp;quot;SF Pro Display&amp;quot;, &amp;quot;SF Pro Icons&amp;quot;, &amp;quot;PingFang SC&amp;quot;, &amp;quot;Hiragino Sans GB&amp;quot;, &amp;quot;Microsoft YaHei&amp;quot;, &amp;quot;Helvetica Neue&amp;quot;, Helvetica, Arial, sans-serif; font-size: 16px; text-align: start; background-color: rgb(249, 250, 251);&quot;&gt;&amp;nbsp;指向同一个对象。执行&amp;nbsp;&lt;/span&gt;&lt;code style=&quot;-webkit-font-smoothing: antialiased; box-sizing: border-box; -webkit-tap-highlight-color: rgba(0, 0, 0, 0); background: var(--color-inline-code-background); border-radius: 4px; color: rgba(0, 0, 0, 0.85); font-size: 16px; font-family: Menlo, Monaco, Consolas, &amp;quot;Courier New&amp;quot;, monospace; overflow-anchor: auto; line-height: var(--md-box-samantha-normal-text-line-height); text-align: start;&quot;&gt;name = std::move(other.name);&lt;/code&gt;&lt;span style=&quot;color: rgba(0, 0, 0, 0.85); font-family: Inter, -apple-system, BlinkMacSystemFont, &amp;quot;Segoe UI&amp;quot;, &amp;quot;SF Pro SC&amp;quot;, &amp;quot;SF Pro Display&amp;quot;, &amp;quot;SF Pro Icons&amp;quot;, &amp;quot;PingFang SC&amp;quot;, &amp;quot;Hiragino Sans GB&amp;quot;, &amp;quot;Microsoft YaHei&amp;quot;, &amp;quot;Helvetica Neue&amp;quot;, Helvetica, Arial, sans-serif; font-size: 16px; text-align: start; background-color: rgb(249, 250, 251);&quot;&gt;&amp;nbsp;时，&lt;/span&gt;&lt;code style=&quot;-webkit-font-smoothing: antialiased; box-sizing: border-box; -webkit-tap-highlight-color: rgba(0, 0, 0, 0); background: var(--color-inline-code-background); border-radius: 4px; color: rgba(0, 0, 0, 0.85); font-size: 16px; font-family: Menlo, Monaco, Consolas, &amp;quot;Courier New&amp;quot;, monospace; overflow-anchor: auto; line-height: var(--md-box-samantha-normal-text-line-height); text-align: start;&quot;&gt;std::move&lt;/code&gt;&lt;span style=&quot;color: rgba(0, 0, 0, 0.85); font-family: Inter, -apple-system, BlinkMacSystemFont, &amp;quot;Segoe UI&amp;quot;, &amp;quot;SF Pro SC&amp;quot;, &amp;quot;SF Pro Display&amp;quot;, &amp;quot;SF Pro Icons&amp;quot;, &amp;quot;PingFang SC&amp;quot;, &amp;quot;Hiragino Sans GB&amp;quot;, &amp;quot;Microsoft YaHei&amp;quot;, &amp;quot;Helvetica Neue&amp;quot;, Helvetica, Arial, sans-serif; font-size: 16px; text-align: start; background-color: rgb(249, 250, 251);&quot;&gt;&amp;nbsp;会把&amp;nbsp;&lt;/span&gt;&lt;code style=&quot;-webkit-font-smoothing: antialiased; box-sizing: border-box; -webkit-tap-highlight-color: rgba(0, 0, 0, 0); background: var(--color-inline-code-background); border-radius: 4px; color: rgba(0, 0, 0, 0.85); font-size: 16px; font-family: Menlo, Monaco, Consolas, &amp;quot;Courier New&amp;quot;, monospace; overflow-anchor: auto; line-height: var(--md-box-samantha-normal-text-line-height); text-align: start;&quot;&gt;name&lt;/code&gt;&lt;span style=&quot;color: rgba(0, 0, 0, 0.85); font-family: Inter, -apple-system, BlinkMacSystemFont, &amp;quot;Segoe UI&amp;quot;, &amp;quot;SF Pro SC&amp;quot;, &amp;quot;SF Pro Display&amp;quot;, &amp;quot;SF Pro Icons&amp;quot;, &amp;quot;PingFang SC&amp;quot;, &amp;quot;Hiragino Sans GB&amp;quot;, &amp;quot;Microsoft YaHei&amp;quot;, &amp;quot;Helvetica Neue&amp;quot;, Helvetica, Arial, sans-serif; font-size: 16px; text-align: start; background-color: rgb(249, 250, 251);&quot;&gt;&amp;nbsp;自身的资源所有权转移走，并且清空&amp;nbsp;&lt;/span&gt;&lt;code style=&quot;-webkit-font-smoothing: antialiased; box-sizing: border-box; -webkit-tap-highlight-color: rgba(0, 0, 0, 0); background: var(--color-inline-code-background); border-radius: 4px; color: rgba(0, 0, 0, 0.85); font-size: 16px; font-family: Menlo, Monaco, Consolas, &amp;quot;Courier New&amp;quot;, monospace; overflow-anchor: auto; line-height: var(--md-box-samantha-normal-text-line-height); text-align: start;&quot;&gt;other.name&lt;/code&gt;&lt;span style=&quot;color: rgba(0, 0, 0, 0.85); font-family: Inter, -apple-system, BlinkMacSystemFont, &amp;quot;Segoe UI&amp;quot;, &amp;quot;SF Pro SC&amp;quot;, &amp;quot;SF Pro Display&amp;quot;, &amp;quot;SF Pro Icons&amp;quot;, &amp;quot;PingFang SC&amp;quot;, &amp;quot;Hiragino Sans GB&amp;quot;, &amp;quot;Microsoft YaHei&amp;quot;, &amp;quot;Helvetica Neue&amp;quot;, Helvetica, Arial, sans-serif; font-size: 16px; text-align: start; background-color: rgb(249, 250, 251);&quot;&gt;&amp;nbsp;（也就是&amp;nbsp;&lt;/span&gt;&lt;code style=&quot;-webkit-font-smoothing: antialiased; box-sizing: border-box; -webkit-tap-highlight-color: rgba(0, 0, 0, 0); background: var(--color-inline-code-background); border-radius: 4px; color: rgba(0, 0, 0, 0.85); font-size: 16px; font-family: Menlo, Monaco, Consolas, &amp;quot;Courier New&amp;quot;, monospace; overflow-anchor: auto; line-height: var(--md-box-samantha-normal-text-line-height); text-align: start;&quot;&gt;this-&amp;gt;name&lt;/code&gt;&lt;span style=&quot;color: rgba(0, 0, 0, 0.85); font-family: Inter, -apple-system, BlinkMacSystemFont, &amp;quot;Segoe UI&amp;quot;, &amp;quot;SF Pro SC&amp;quot;, &amp;quot;SF Pro Display&amp;quot;, &amp;quot;SF Pro Icons&amp;quot;, &amp;quot;PingFang SC&amp;quot;, &amp;quot;Hiragino Sans GB&amp;quot;, &amp;quot;Microsoft YaHei&amp;quot;, &amp;quot;Helvetica Neue&amp;quot;, Helvetica, Arial, sans-serif; font-size: 16px; text-align: start; background-color: rgb(249, 250, 251);&quot;&gt;&amp;nbsp;），这就导致对象丢失了原本持有的资源，最终结果是对象处于一个不合法的状态&lt;/span&gt;" style="whiteSpace=wrap;html=1;rounded=1;" vertex="1" parent="1">
          <mxGeometry x="270" y="800" width="402.5" height="310" as="geometry" />
        </mxCell>
        <mxCell id="1k1W2q-cotQ6aSmStONc-19" value="" style="edgeStyle=orthogonalEdgeStyle;rounded=0;orthogonalLoop=1;jettySize=auto;html=1;" edge="1" parent="1" source="1k1W2q-cotQ6aSmStONc-16" target="1k1W2q-cotQ6aSmStONc-18">
          <mxGeometry relative="1" as="geometry" />
        </mxCell>
        <mxCell id="1k1W2q-cotQ6aSmStONc-16" value="&lt;font style=&quot;font-size: 15px;&quot;&gt;容器&lt;/font&gt;" style="rounded=1;whiteSpace=wrap;html=1;fontSize=12;glass=0;strokeWidth=1;shadow=0;" vertex="1" parent="1">
          <mxGeometry x="-70" y="230" width="170" height="90" as="geometry" />
        </mxCell>
        <mxCell id="1k1W2q-cotQ6aSmStONc-17" style="edgeStyle=orthogonalEdgeStyle;rounded=0;orthogonalLoop=1;jettySize=auto;html=1;entryX=-0.019;entryY=0.6;entryDx=0;entryDy=0;entryPerimeter=0;" edge="1" parent="1" source="1k1W2q-cotQ6aSmStONc-16" target="1k1W2q-cotQ6aSmStONc-1">
          <mxGeometry relative="1" as="geometry" />
        </mxCell>
        <mxCell id="1k1W2q-cotQ6aSmStONc-21" value="" style="edgeStyle=orthogonalEdgeStyle;rounded=0;orthogonalLoop=1;jettySize=auto;html=1;" edge="1" parent="1" source="1k1W2q-cotQ6aSmStONc-18" target="1k1W2q-cotQ6aSmStONc-20">
          <mxGeometry relative="1" as="geometry" />
        </mxCell>
        <mxCell id="1k1W2q-cotQ6aSmStONc-18" value="迭代器" style="whiteSpace=wrap;html=1;rounded=1;glass=0;strokeWidth=1;shadow=0;" vertex="1" parent="1">
          <mxGeometry x="-45" y="415" width="120" height="60" as="geometry" />
        </mxCell>
        <mxCell id="1k1W2q-cotQ6aSmStONc-23" value="" style="edgeStyle=orthogonalEdgeStyle;rounded=0;orthogonalLoop=1;jettySize=auto;html=1;" edge="1" parent="1" source="1k1W2q-cotQ6aSmStONc-20" target="1k1W2q-cotQ6aSmStONc-22">
          <mxGeometry relative="1" as="geometry" />
        </mxCell>
        <mxCell id="1k1W2q-cotQ6aSmStONc-20" value="哪些情况会导致迭代器失效" style="whiteSpace=wrap;html=1;rounded=1;glass=0;strokeWidth=1;shadow=0;" vertex="1" parent="1">
          <mxGeometry x="-45" y="520" width="120" height="60" as="geometry" />
        </mxCell>
        <mxCell id="1k1W2q-cotQ6aSmStONc-25" value="" style="edgeStyle=orthogonalEdgeStyle;rounded=0;orthogonalLoop=1;jettySize=auto;html=1;" edge="1" parent="1" source="1k1W2q-cotQ6aSmStONc-22" target="1k1W2q-cotQ6aSmStONc-24">
          <mxGeometry relative="1" as="geometry" />
        </mxCell>
        <mxCell id="1k1W2q-cotQ6aSmStONc-22" value="元素个数改变会导致迭代器失效" style="whiteSpace=wrap;html=1;rounded=1;glass=0;strokeWidth=1;shadow=0;" vertex="1" parent="1">
          <mxGeometry x="-45" y="620" width="120" height="60" as="geometry" />
        </mxCell>
        <mxCell id="1k1W2q-cotQ6aSmStONc-24" value="比如删除数组中两个元素之后，之前的end()迭代器就用不了了，他是怎么实现由将end（）指向新的最后一个元素的后一个元素的呢？&lt;div&gt;维护指针的位置。&lt;/div&gt;" style="whiteSpace=wrap;html=1;rounded=1;glass=0;strokeWidth=1;shadow=0;" vertex="1" parent="1">
          <mxGeometry x="-45" y="710" width="155" height="130" as="geometry" />
        </mxCell>
      </root>
    </mxGraphModel>
  </diagram>
</mxfile>
